<svg id="Layer_1" data-name="Layer 1" xmlns="http://www.w3.org/2000/svg" viewBox="0 0 1000 1000"><defs><style>.cls-1{fill:#566873;}.cls-2{fill:#183140;stroke-width:6px;}.cls-2,.cls-4{stroke:#f2f2f2;stroke-miterlimit:10;}.cls-3,.cls-4{fill:#f2f2f2;}</style></defs><circle class="cls-1" cx="500" cy="500" r="500"/><circle class="cls-2" cx="500" cy="500" r="450"/><path class="cls-3" d="M696.668,936.984q13.2-.8,19-5.6t7.4-14.4a153.332,153.332,0,0,0,1.6-24.4v-166.4q0-8.794.4-17t.8-14.2q-6.805.4-14.8.8t-14.4.8v-22l102-.4q37.2,0,66.8,9.6t50.4,27.8a118.172,118.172,0,0,1,31.6,44.2q10.8,26.007,10.8,58a150.506,150.506,0,0,1-9.2,52,127.72,127.72,0,0,1-28.2,45q-19,19.8-47.8,31.8t-68,12h-108.4Zm70.4-35.6q0,10.8-.2,19.2a111.357,111.357,0,0,1-1,13.6q8.4,0,16.8.2t15,.2h9.4q24.8,0,44-9.2a94.043,94.043,0,0,0,32.6-25.6,115.884,115.884,0,0,0,20.4-38,148.414,148.414,0,0,0,7-46q0-39.2-12.8-66.4a90.62,90.62,0,0,0-38.6-41.6q-25.8-14.4-64.2-14.8-13.2,0-19.2,4.6t-7.6,14.2a152.677,152.677,0,0,0-1.6,24.4Z" transform="translate(-459.667 -459.611)"/><path class="cls-3" d="M992.273,954.584v-17.6q13.2-.8,19-5.6t7.4-14.4a153.466,153.466,0,0,0,1.6-24.4v-166.4q0-8.794.4-17t.8-14.2q-6.805.4-14.8.8t-14.4.8v-22h98.4v17.6q-12.806.4-18.8,5.4t-7.6,14.4a151.982,151.982,0,0,0-1.6,24.6v64h29.6l43.6-70q6-9.2,13.6-19.6a102.643,102.643,0,0,1,14.4-16.4q-6,.4-12.6.6t-11.8.6v-21.2h90v17.6a103.89,103.89,0,0,0-26.6,4.8q-12.207,4-23.8,14t-24.4,30.8l-38.8,62a71.679,71.679,0,0,1,17.2,14.4q6.8,8.005,13.2,16.4l43.6,58.8q12.8,17.2,22.2,26.8t17.8,13.2a42.351,42.351,0,0,0,16.8,3.6v17.6h-53.2q-3.6,0-10.4-6a147.076,147.076,0,0,1-14.6-15.2q-7.8-9.2-15-18.4l-45.2-62.4q-6.807-9.2-13.8-18t-13.8-12.8h-18v79.2q0,10.8-.2,19.4a112.888,112.888,0,0,1-1,13.8q6.8-.8,15-1t14.2-.6v22Z" transform="translate(-459.667 -459.611)"/><path class="cls-3" d="M657.985,1055.688q-.715,9.87-7.286,15.538t-17.322,5.669q-11.757,0-18.5-7.916t-6.74-21.731v-3.737a36.628,36.628,0,0,1,3.108-15.537,23.289,23.289,0,0,1,8.881-10.31,24.881,24.881,0,0,1,13.416-3.59q10.583,0,17.049,5.669t7.475,15.915h-12.6q-.462-5.92-3.3-8.588t-8.63-2.666q-6.3,0-9.427,4.514t-3.212,14.005v4.619q0,9.91,3,14.487t9.469,4.577q5.837,0,8.714-2.667t3.3-8.251Z" transform="translate(-459.667 -459.611)"/><path class="cls-3" d="M742.6,1049.558H718.415v16.377H746.8v10.12H705.817v-61.141h40.9v10.2h-28.3v14.571H742.6Z" transform="translate(-459.667 -459.611)"/><path class="cls-3" d="M816.386,1053.673H806.35v22.382h-12.6v-61.141H816.47q10.834,0,16.713,4.829t5.879,13.648a18.815,18.815,0,0,1-2.708,10.435,18.475,18.475,0,0,1-8.21,6.655l13.228,24.986v.588H827.85Zm-10.036-10.2h10.162q4.745,0,7.349-2.414a8.633,8.633,0,0,0,2.6-6.657,9.237,9.237,0,0,0-2.456-6.8q-2.457-2.478-7.538-2.478H806.35Z" transform="translate(-459.667 -459.611)"/><path class="cls-3" d="M922.714,1063.457H900.626l-4.2,12.6h-13.4l22.76-61.141h11.674l22.886,61.141h-13.4Zm-18.687-10.2h15.285l-7.684-22.886Z" transform="translate(-459.667 -459.611)"/><path class="cls-3" d="M1002.083,1014.914l15.705,44.344,15.621-44.344h16.545v61.141h-12.64v-16.713l1.26-28.849-16.5,45.562h-8.65l-16.461-45.52,1.26,28.807v16.713h-12.6v-61.141Z" transform="translate(-459.667 -459.611)"/><path class="cls-3" d="M1113.911,1076.055h-12.6v-61.141h12.6Z" transform="translate(-459.667 -459.611)"/><path class="cls-3" d="M1213.142,1055.688q-.716,9.87-7.286,15.538t-17.322,5.669q-11.759,0-18.5-7.916t-6.74-21.731v-3.737a36.643,36.643,0,0,1,3.107-15.537,23.3,23.3,0,0,1,8.882-10.31,24.879,24.879,0,0,1,13.416-3.59q10.583,0,17.049,5.669t7.475,15.915h-12.6q-.464-5.92-3.3-8.588t-8.63-2.666q-6.3,0-9.427,4.514t-3.213,14.005v4.619q0,9.91,3,14.487t9.469,4.577q5.836,0,8.714-2.667t3.3-8.251Z" transform="translate(-459.667 -459.611)"/><path class="cls-3" d="M1292.679,1060.014a6.47,6.47,0,0,0-2.52-5.481q-2.52-1.909-9.07-4.031a64.1,64.1,0,0,1-10.372-4.178q-10.416-5.626-10.414-15.159a14.756,14.756,0,0,1,2.792-8.839,18.211,18.211,0,0,1,8.02-6.068,30.207,30.207,0,0,1,11.738-2.184,27.472,27.472,0,0,1,11.673,2.373,18.591,18.591,0,0,1,7.957,6.7,17.523,17.523,0,0,1,2.835,9.826h-12.6a8.244,8.244,0,0,0-2.646-6.53q-2.645-2.331-7.432-2.331-4.622,0-7.181,1.952a6.163,6.163,0,0,0-2.562,5.145,5.9,5.9,0,0,0,3,5,33.887,33.887,0,0,0,8.84,3.779q10.749,3.236,15.663,8.021a15.971,15.971,0,0,1,4.913,11.926,14.716,14.716,0,0,1-6,12.451q-6,4.515-16.167,4.514a31.227,31.227,0,0,1-12.849-2.583,20.332,20.332,0,0,1-8.84-7.076,18.114,18.114,0,0,1-3.044-10.414h12.64q0,10.121,12.093,10.12a11.756,11.756,0,0,0,7.013-1.827A5.94,5.94,0,0,0,1292.679,1060.014Z" transform="translate(-459.667 -459.611)"/><path class="cls-4" d="M1011.151,1212.649c-7.937,40.153-5.127,30.232-10.455,52.65-5.392,22.673-8.74,34.809-16.87,37-.341.093-1.329.217-3.306.472a145.687,145.687,0,0,1-20.8,1.1h-.038a146.514,146.514,0,0,1-20.862-1.1c-1.98-.255-2.969-.379-3.309-.472-8.128-2.19-11.478-14.326-16.868-37-5.33-22.418-2.517-12.5-10.458-52.65a71.342,71.342,0,0,1-1.433-19.047c.462-7.384,1.075-15.48,6.74-22.622a30.407,30.407,0,0,1,13.977-9.625,2.087,2.087,0,0,0-.089-1.488c-.806-1.539-3.712-.623-5.269-2.025-.775-.7-1.388-2.117-.813-5.268,6.406-1.061,13.455-1.925,21.072-2.421,6.137-.4,11.922-.507,17.3-.42,5.383-.087,11.168.02,17.3.42,7.621.5,14.67,1.363,21.072,2.421.575,3.151-.038,4.573-.809,5.268-1.56,1.4-4.467.486-5.269,2.025a2.111,2.111,0,0,0-.093,1.488,30.394,30.394,0,0,1,13.978,9.625c5.668,7.142,6.278,15.242,6.739,22.622A71.342,71.342,0,0,1,1011.151,1212.649Z" transform="translate(-459.667 -459.611)"/></svg>